<?xml version="1.0" encoding="UTF-8" standalone="no"?>
<!-- Created with Inkscape (http://www.inkscape.org/) -->

<svg
   version="1.1"
   id="svg360"
   width="794.4906"
   height="784.6012"
   viewBox="0 0 794.49063 784.60122"
   sodipodi:docname="LefniresLifehacksLogo.svg"
   inkscape:version="1.2.1 (9c6d41e, 2022-07-14)"
   xmlns:inkscape="http://www.inkscape.org/namespaces/inkscape"
   xmlns:sodipodi="http://sodipodi.sourceforge.net/DTD/sodipodi-0.dtd"
   xmlns="http://www.w3.org/2000/svg"
   xmlns:svg="http://www.w3.org/2000/svg">
  <defs
     id="defs364" />
  <sodipodi:namedview
     id="namedview362"
     pagecolor="#ffffff"
     bordercolor="#000000"
     borderopacity="0.25"
     inkscape:showpageshadow="2"
     inkscape:pageopacity="0.0"
     inkscape:pagecheckerboard="0"
     inkscape:deskcolor="#d1d1d1"
     showgrid="false"
     inkscape:zoom="0.28037662"
     inkscape:cx="2004.4468"
     inkscape:cy="1314.3036"
     inkscape:window-width="742"
     inkscape:window-height="847"
     inkscape:window-x="0"
     inkscape:window-y="1105"
     inkscape:window-maximized="0"
     inkscape:current-layer="g366" />
  <g
     inkscape:groupmode="layer"
     inkscape:label="Image"
     id="g366"
     transform="translate(-1638.6883,-1390.2305)">
    <path
       style="fill:#000000;stroke-width:1.33333"
       d="m 1889.8439,2170.8894 -20.1779,-0.4466 12.2386,-11.819 c 13.4058,-12.9462 23.7976,-20.2415 40.1477,-28.1848 23.8638,-11.5937 7.4467,-10.5951 174.1783,-10.5951 h 147.7912 v -274.6666 -274.6666 h -275.9999 -276 v 63.3333 63.3333 h -26.6667 -26.6667 v -82.0428 c 0,-90.5405 -0.1381,-88.9699 8.2283,-93.5353 4.2536,-2.321 17.6246,-2.4219 321.1051,-2.4219 h 316.6666 l 4.3535,3.1051 c 9.0229,6.4357 8.3132,-21.1371 8.3132,322.9605 0,347.3936 0.8022,318.685 -9.0355,323.3533 -4.4874,2.1294 -18.0534,2.3076 -191.5636,2.5158 -102.7038,0.1232 -195.8143,0.023 -206.9122,-0.2226 z"
       id="path623-4"
       sodipodi:nodetypes="scssscccccccccssscsssss"
       inkscape:export-filename="../Downloads/twobird_icon.svg"
       inkscape:export-xdpi="96"
       inkscape:export-ydpi="96" />
    <path
       style="fill:#000000;stroke-width:1.33333"
       d="m 1670.8179,2174.088 c -6.5981,-0.6753 -11.777,-4.296 -14.5731,-10.1883 -1.9617,-4.1339 -5.4534,-87.8574 -5.4534,-241.4513 0,-93.2058 56.5918,83.6266 56.5918,83.6266 l 0.031,117 3,-0.01 c 5.558,-0.016 137.8479,31.4611 128.9611,43.2315 l -5.2887,7.0048 -46.2207,0.8827 c -47.4575,0.9062 -107.6993,0.8526 -117.0476,-0.1043 z"
       id="path478-5-0-6"
       sodipodi:nodetypes="csscccscscc" />
    <path
       style="fill:#000000;stroke-width:1.33333"
       d="m 1656.7512,1879.774 c -6.5981,-0.6753 -11.777,-4.296 -14.5731,-10.1883 -1.9617,-4.1339 -2.1644,-20.4323 -2.1644,-174.0262 0,-93.2058 0.45,-169.458 1,-169.4493 0.55,0.01 3.7,5.2455 7,11.6373 7.5288,14.5825 17.6472,28.1127 33.1645,44.3468 l 12.1073,12.6667 0.031,117 0.031,117 3,-0.01 c 5.558,-0.016 32.2117,-7.703 48.3333,-13.94 30.3378,-11.7367 71.6937,-35.8202 100.6427,-58.6092 14.5146,-11.426 53.5834,-51.032 67.1853,-68.109 14.8331,-18.6226 31.4684,-43.3337 38.2442,-56.8101 2.8936,-5.7552 5.2612,-10.8305 5.2612,-11.2784 0,-0.4479 -3.8237,2.6888 -8.4971,6.9704 -24.2344,22.2028 -61.0523,33.6719 -96.2987,29.9979 -27.918,-2.9102 -52.1011,-13.22 -78.2462,-33.3583 l -14.958,-11.522 42,-0.762 c 46.0806,-0.836 50.6518,-1.4793 70.9778,-9.9888 13.2188,-5.534 24.6451,-13.7311 36.3613,-26.0849 8.2141,-8.6611 19.3275,-23.4756 19.3275,-25.7641 0,-0.4481 -4.35,2.1101 -9.6666,5.6849 -19.4932,13.1065 -32.3551,18.7291 -54.1577,23.6751 -13.7863,3.1273 -15.7323,3.2153 -70.8423,3.2022 l -56.6667,-0.013 -8.9374,-8.0346 c -8.6949,-7.8169 -24.2189,-26.1821 -32.8265,-38.8345 l -4.2544,-6.2534 65.6758,-0.4699 65.6758,-0.4698 13.3334,-3.5728 c 13.5614,-3.6339 34.0859,-13.0791 41.3333,-19.0211 l 4,-3.2795 -99.7984,-0.01 -99.7984,-0.01 -3.8382,-4.1089 c -9.094,-9.7352 -22.4654,-33.8172 -27.1464,-48.8911 l -0.9316,-3 87.0898,0.026 c 96.6404,0.029 102.3627,0.3936 132.4232,8.4396 30.6294,8.1983 42.8411,13.1164 65.6034,26.421 21.4907,12.5614 34.1023,22.4123 52.011,40.6259 31.204,31.7353 50.4395,67.419 59.9179,111.154 3.2353,14.9279 3.3675,64.6383 0.2013,75.6667 -1.1053,3.85 -1.8326,7 -1.6162,7 1.7959,0 13.8965,-18.4869 18.6007,-28.4176 8.5988,-18.1524 10.407,-27.0899 10.4357,-51.5824 0.044,-38.0163 -8.8926,-66.2043 -32.1281,-101.3333 -8.9399,-13.5159 -29.2696,-37.6848 -35.1821,-41.8261 -2.4094,-1.6876 -2.742,-2.8564 -2.0478,-7.1976 1.4891,-9.3122 11.1205,-35.8771 17.0262,-46.961 20.015,-37.564 54.5124,-54.726 91.1631,-45.3524 9.6459,2.467 26.1681,10.349 28.039,13.3761 0.4443,0.719 4.3128,3.6875 8.5966,6.5965 7.4062,5.0295 22.9567,10.815 50.7126,18.8675 l 10,2.9012 -10.863,2.4245 c -28.3056,6.3174 -44.6661,16.4326 -56.7271,35.0726 -10.8509,16.7696 -12.5126,32.7064 -7.0843,67.9395 3.2517,21.1055 3.5969,26.3831 3.009,45.9999 -1.0007,33.3907 -6.8793,57.1877 -21.284,86.1593 -13.7646,27.6841 -32.6016,50.4814 -59.7172,72.2722 -28.5449,22.9395 -51.9635,33.5303 -115.3334,52.1582 -34.5753,10.1636 -54.1872,19.4587 -76.4476,36.2324 -11.057,8.3317 -30.0378,27.4633 -38.9246,39.2337 l -5.2887,7.0048 -46.2207,0.8827 c -47.4575,0.9062 -107.6993,0.8526 -117.0476,-0.1043 z m 443.5331,-425.7442 c 4.5269,-2.0663 9.0628,-9.8026 9.0628,-15.4575 0,-9.6189 -10.4829,-17.9015 -20.009,-15.8093 -2.1998,0.4832 -5.7978,2.6766 -7.9954,4.8742 -3.3206,3.3206 -3.9877,5.0484 -3.9484,10.2264 0.026,3.427 0.8164,7.617 1.7566,9.3111 3.8542,6.9457 13.8391,10.1845 21.1334,6.8551 z"
       id="path478-5-82-1"
       sodipodi:nodetypes="csssssccccsssssssscssssssscsscccsscccsscssssssssssssssssscssssssssscsccsssssss" />
  </g>
  <g
     inkscape:groupmode="layer"
     id="layer2"
     inkscape:label="Top Bird"
     transform="translate(-1638.6883,-1390.2305)">
    <path
       style="fill:#000000;stroke-width:1.33333"
       d="m 1881.2494,2171.3944 c -6.5981,-0.6753 -11.777,-4.296 -14.5731,-10.1883 -1.9617,-4.1339 -2.1644,-20.4323 -2.1644,-174.0262 0,-93.2058 0.45,-169.458 1,-169.4493 0.55,0.01 3.7,5.2454 7,11.6372 7.5288,14.5825 17.6472,28.1127 33.1645,44.3469 l 12.1073,12.6667 0.031,117 0.031,117 3,-0.01 c 5.558,-0.016 32.2117,-7.703 48.3333,-13.94 30.3378,-11.7367 71.6937,-35.8202 100.6427,-58.6092 14.5146,-11.426 53.5834,-51.032 67.1853,-68.109 14.8331,-18.6226 31.4684,-43.3337 38.2442,-56.8101 2.8936,-5.7552 5.2612,-10.8305 5.2612,-11.2784 0,-0.4479 -3.8237,2.6888 -8.4971,6.9704 -24.2344,22.2028 -61.0523,33.6719 -96.2987,29.9979 -27.918,-2.9102 -52.1011,-13.22 -78.2462,-33.3583 l -14.958,-11.522 42,-0.762 c 46.0806,-0.836 50.6518,-1.4793 70.9778,-9.9888 13.2188,-5.534 24.6451,-13.7311 36.3613,-26.085 8.2141,-8.6611 19.3275,-23.4756 19.3275,-25.7641 0,-0.448 -4.35,2.1101 -9.6666,5.6849 -19.4932,13.1065 -32.3551,18.7291 -54.1577,23.6751 -13.7863,3.1274 -15.7323,3.2154 -70.8423,3.2023 l -56.6667,-0.013 -8.9374,-8.0347 c -8.6949,-7.8169 -24.2189,-26.182 -32.8265,-38.8344 l -4.2544,-6.2535 65.6758,-0.4698 65.6758,-0.4699 13.3334,-3.5728 c 13.5614,-3.6339 34.0859,-13.079 41.3333,-19.0211 l 4,-3.2795 -99.7984,-0.01 -99.7984,-0.01 -3.8382,-4.1089 c -9.094,-9.7351 -22.4654,-33.8171 -27.1464,-48.8911 l -0.9316,-3 87.0898,0.026 c 96.6404,0.029 102.3627,0.3936 132.4232,8.4396 30.6294,8.1983 42.8411,13.1164 65.6034,26.421 21.4907,12.5614 34.1023,22.4124 52.011,40.626 31.204,31.7352 50.4395,67.419 59.9179,111.154 3.2353,14.9279 3.3675,64.6383 0.2013,75.6667 -1.1053,3.85 -1.8326,7 -1.6162,7 1.7959,0 13.8965,-18.4869 18.6007,-28.4176 8.5988,-18.1524 10.407,-27.0899 10.4357,-51.5824 0.044,-38.0163 -8.8926,-66.2044 -32.1281,-101.3333 -8.9399,-13.516 -29.2696,-37.6849 -35.1821,-41.8262 -2.4094,-1.6876 -2.742,-2.8563 -2.0478,-7.1976 1.4891,-9.3122 11.1205,-35.8771 17.0262,-46.961 20.015,-37.564 54.5124,-54.726 91.1631,-45.3524 9.6459,2.4671 26.1681,10.349 28.039,13.3761 0.4443,0.7191 4.3128,3.6875 8.5966,6.5965 7.4062,5.0295 22.9567,10.815 50.7126,18.8676 l 10,2.9011 -10.863,2.4245 c -28.3056,6.3175 -44.6661,16.4326 -56.7271,35.0726 -10.8509,16.7697 -12.5126,32.7064 -7.0843,67.9396 3.2517,21.1054 3.5969,26.383 3.009,45.9999 -1.0007,33.3907 -6.8793,57.1877 -21.284,86.1593 -13.7646,27.6841 -32.6016,50.4814 -59.7172,72.2722 -28.5449,22.9395 -51.9635,33.5303 -115.3334,52.1582 -34.5753,10.1636 -54.1872,19.4587 -76.4476,36.2324 -11.057,8.3317 -30.0378,27.4633 -38.9246,39.2337 l -5.2887,7.0048 -46.2207,0.8827 c -47.4575,0.9062 -107.6993,0.8526 -117.0476,-0.1043 z m 443.5331,-425.7443 c 4.5269,-2.0662 9.0628,-9.8026 9.0628,-15.4575 0,-9.6189 -10.4829,-17.9015 -20.009,-15.8092 -2.1998,0.4832 -5.7978,2.6765 -7.9954,4.8741 -3.3206,3.3206 -3.9877,5.0484 -3.9484,10.2265 0.026,3.4269 0.8164,7.6169 1.7566,9.3111 3.8542,6.9456 13.8391,10.1844 21.1334,6.855 z"
       id="path478-5-1"
       sodipodi:nodetypes="csssssccccsssssssscssssssscsscccsscccsscssssssssssssssssscssssssssscsccsssssss" />
  </g>
</svg>
