<svg width="73" height="20" viewBox="0 0 73 20" fill="none" xmlns="http://www.w3.org/2000/svg">
<path fill-rule="evenodd" clip-rule="evenodd" d="M0 20H6.9446C13.5099 20 18.278 17.286 18.278 10C18.278 2.71396 13.5099 0 6.9446 0L0 0L0 20ZM5.31183 15.3426L5.31183 4.65739H7.0011C10.7333 4.65739 13.0201 6.02784 13.0201 10C13.0201 13.9713 10.7333 15.3426 7.0011 15.3426L5.31183 15.3426ZM21.3552 20L35.8198 20V15.5141L26.667 15.5141V12.115L35.7376 12.115V7.82847L26.667 7.82847V4.48496L35.8198 4.48496V0L21.3552 0L21.3552 20ZM39.6058 20H44.916V13.4854H48.077C52.8426 13.4854 56.0311 11.3714 56.0311 6.7427C56.0311 2.11405 52.8426 0 48.077 0L39.6058 0V20ZM44.916 9.17018V4.31522L47.9674 4.31522C49.9281 4.31522 50.8819 5.14324 50.8819 6.7427C50.8819 8.34306 49.9281 9.17018 47.9674 9.17018H44.916ZM62.4046 20H67.7147V4.68613L73 4.68613V0L57.1202 0V4.68613L62.4046 4.68613V20Z" fill="white"/>
</svg>
